{"asset":{"generator":"3D Builder","version":"2.0"},"scene":0,"scenes":[{"nodes":[0]}],"nodes":[{"mesh":0,"matrix":[1,0,0,0,0,-1.1920928955078125E-7,-0.99999988079071045,0,0,0.99999988079071045,-1.1920928955078125E-7,0,0,0,0,1]}],"meshes":[{"primitives":[{"attributes":{"POSITION":0,"COLOR_0":1},"mode":4,"indices":2}]}],"accessors":[{"bufferView":0,"byteOffset":0,"count":876,"componentType":5126,"type":"VEC3","min":[-0.020320000126957893,-0.020320000126957893,0],"max":[0.020320000126957893,0.063500002026557922,0.025399999693036079]},{"bufferView":1,"byteOffset":0,"count":876,"componentType":5121,"type":"VEC4","normalized":true},{"bufferView":2,"byteOffset":0,"count":5268,"componentType":5125,"type":"SCALAR"}],"bufferViews":[{"buffer":0,"byteOffset":0,"byteLength":10512,"byteStride":12,"target":34962},{"buffer":0,"byteOffset":10512,"byteLength":3504,"byteStride":4,"target":34962},{"buffer":0,"byteOffset":14016,"byteLength":21072,"target":34963}],"buffers":[{"byteLength":35088,"uri":"leog-2er-openjscad.bin"}]}